<svg xmlns="http://www.w3.org/2000/svg" viewBox="0 0 164.1 34.36"><defs><style>.cls-1{fill:#7d9a3c;}.cls-2{fill:#3b515e;}</style></defs><g id="Layer_2" data-name="Layer 2"><g id="Layer_1-2" data-name="Layer 1"><path class="cls-1" d="M1.86,4.11H5.42V9.9h5.44V4.11h3.56v15H10.86V12.86H5.42v6.28H1.86Z" transform="translate(-1.6 -3.83)"/><path class="cls-1" d="M18.15,4.11h3.56v15H18.15Z" transform="translate(-1.6 -3.83)"/><path class="cls-1" d="M24.68,11.71c0-5,3.47-7.88,7.68-7.88a7,7,0,0,1,5,2L35.45,8a4.19,4.19,0,0,0-3-1.19c-2.43,0-4.15,1.81-4.15,4.83s1.47,4.88,4.43,4.88A2.94,2.94,0,0,0,34.43,16V13.44H31.82V10.67h5.77v6.92a7.76,7.76,0,0,1-5.19,1.82C28.06,19.41,24.68,16.77,24.68,11.71Z" transform="translate(-1.6 -3.83)"/><path class="cls-1" d="M40.85,4.11h3.56V9.9h5.44V4.11h3.56v15H49.85V12.86H44.41v6.28H40.85Z" transform="translate(-1.6 -3.83)"/><path class="cls-1" d="M61.23,11.71c0-5,3.45-7.88,7.43-7.88a6.82,6.82,0,0,1,4.74,2L71.52,8a4,4,0,0,0-2.78-1.19c-2.16,0-3.86,1.81-3.86,4.83s1.5,4.88,3.81,4.88a4.25,4.25,0,0,0,3.08-1.4l1.87,2.13a6.59,6.59,0,0,1-5.08,2.2C64.56,19.41,61.23,16.77,61.23,11.71Z" transform="translate(-1.6 -3.83)"/><path class="cls-1" d="M74.4,11.56c0-4.91,2.91-7.73,7.15-7.73s7.16,2.84,7.16,7.73-2.91,7.85-7.16,7.85S74.4,16.47,74.4,11.56Zm10.66,0c0-3-1.36-4.79-3.51-4.79s-3.5,1.78-3.5,4.79,1.35,4.92,3.5,4.92S85.06,14.57,85.06,11.56Z" transform="translate(-1.6 -3.83)"/><path class="cls-1" d="M91.59,12.17V4.11h3.56v8.41c0,2.94,1,4,2.73,4s2.8-1,2.8-4V4.11h3.43v8.06c0,5-2.15,7.24-6.23,7.24S91.59,17.22,91.59,12.17Z" transform="translate(-1.6 -3.83)"/><path class="cls-1" d="M107.75,4.11h3.65l4.11,7.47,1.56,3.31h.09c-.16-1.59-.45-3.7-.45-5.47V4.11h3.39v15h-3.65l-4.11-7.5-1.56-3.28h-.09c.17,1.66.45,3.67.45,5.44v5.34h-3.39Z" transform="translate(-1.6 -3.83)"/><path class="cls-1" d="M126.91,7h-4.34V4.11H134.8V7h-4.33V19.14h-3.56Z" transform="translate(-1.6 -3.83)"/><path class="cls-1" d="M137.26,4.11h5.68c3.34,0,6.07,1.11,6.07,4.68s-2.73,4.94-6.07,4.94h-2.12v5.41h-3.56ZM142.65,11c1.87,0,2.87-.76,2.87-2.24s-1-2-2.87-2h-1.83V11Zm-.37,1.8,2.47-2.17,5,8.48h-4Z" transform="translate(-1.6 -3.83)"/><path class="cls-1" d="M154.42,13.78l-4.75-9.67h3.81l1.41,3.45c.42,1.13.83,2.17,1.28,3.33h.1c.45-1.16.9-2.2,1.33-3.33L159,4.11h3.72L158,13.78v5.36h-3.56Z" transform="translate(-1.6 -3.83)"/><path class="cls-2" d="M1.6,27.65h.76v4.54H8.17V27.65h.76V38H8.17V32.82H2.36V38H1.6Z" transform="translate(-1.6 -3.83)"/><path class="cls-2" d="M11.39,34.25c0-2.47,1.67-4,3.45-4s3,1.27,3,3.49a2.75,2.75,0,0,1-.05.57H12.13a3,3,0,0,0,3,3.26,3.67,3.67,0,0,0,2.13-.67l.3.53a4.49,4.49,0,0,1-2.5.74A3.63,3.63,0,0,1,11.39,34.25Zm5.79-.5c0-1.92-.92-2.88-2.34-2.88a2.87,2.87,0,0,0-2.71,2.88Z" transform="translate(-1.6 -3.83)"/><path class="cls-2" d="M19.2,36.13c0-1.68,1.58-2.48,5.1-2.85,0-1.16-.31-2.4-1.86-2.4a4.4,4.4,0,0,0-2.52.89l-.34-.52a5.46,5.46,0,0,1,2.94-1c1.88,0,2.51,1.3,2.51,2.91V38h-.61l-.08-1h0a4.73,4.73,0,0,1-2.81,1.17A2,2,0,0,1,19.2,36.13Zm5.1.25V33.81c-3.25.36-4.36,1.08-4.36,2.28s.77,1.5,1.68,1.5A4.26,4.26,0,0,0,24.3,36.38Z" transform="translate(-1.6 -3.83)"/><path class="cls-2" d="M27.86,37V26.7h.72V37.09c0,.33.15.49.35.49a1.3,1.3,0,0,0,.29,0l.13.57a1.84,1.84,0,0,1-.53.07C28.19,38.19,27.86,37.82,27.86,37Z" transform="translate(-1.6 -3.83)"/><path class="cls-2" d="M32,35.92V31.06H30.71v-.54L32,30.46l.1-2.19h.62v2.19H35v.6H32.68V36c0,1,.25,1.62,1.34,1.62a2.93,2.93,0,0,0,1-.24l.19.56a4.78,4.78,0,0,1-1.29.28C32.39,38.19,32,37.27,32,35.92Z" transform="translate(-1.6 -3.83)"/><path class="cls-2" d="M36.91,26.7h.72v4.94a4,4,0,0,1,2.74-1.37c1.63,0,2.39.95,2.39,2.89V38H42V33.25c0-1.59-.53-2.36-1.8-2.36a3.69,3.69,0,0,0-2.59,1.42V38h-.72Z" transform="translate(-1.6 -3.83)"/><path class="cls-2" d="M48.34,36.13c0-1.68,1.58-2.48,5.1-2.85,0-1.16-.31-2.4-1.86-2.4a4.4,4.4,0,0,0-2.52.89l-.34-.52a5.46,5.46,0,0,1,2.94-1c1.88,0,2.51,1.3,2.51,2.91V38h-.62l-.07-1h0a4.73,4.73,0,0,1-2.81,1.17A2,2,0,0,1,48.34,36.13Zm5.1.25V33.81c-3.25.36-4.36,1.08-4.36,2.28s.77,1.5,1.68,1.5A4.26,4.26,0,0,0,53.44,36.38Z" transform="translate(-1.6 -3.83)"/><path class="cls-2" d="M57,30.46h.61l.08,1.17h0a3.94,3.94,0,0,1,2.72-1.36c1.63,0,2.39.95,2.39,2.89V38h-.73V33.25c0-1.59-.53-2.36-1.8-2.36a3.69,3.69,0,0,0-2.59,1.42V38H57Z" transform="translate(-1.6 -3.83)"/><path class="cls-2" d="M65.11,34.25c0-2.44,1.62-4,3.51-4A3.71,3.71,0,0,1,71,31.2l0-1.39V26.7h.73V38h-.62L71,37h0a3.79,3.79,0,0,1-2.58,1.16C66.39,38.19,65.11,36.79,65.11,34.25ZM71,36.33V31.86a3.4,3.4,0,0,0-2.31-1c-1.57,0-2.78,1.47-2.78,3.36s.94,3.34,2.61,3.34A3.56,3.56,0,0,0,71,36.33Z" transform="translate(-1.6 -3.83)"/><path class="cls-2" d="M77,27.65h.79l1.37,6.1.75,3.38h.06c.26-1.13.55-2.25.83-3.38l1.71-6.1h.77l1.7,6.1c.29,1.12.57,2.25.86,3.38h.07c.25-1.13.47-2.26.72-3.38L88,27.65h.75L86.27,38h-.83l-2-7.11c-.2-.81-.39-1.52-.58-2.33h-.06c-.19.81-.41,1.52-.6,2.33l-2,7.11h-.83Z" transform="translate(-1.6 -3.83)"/><path class="cls-2" d="M90.05,34.25c0-2.47,1.68-4,3.45-4s3,1.27,3,3.49a3.64,3.64,0,0,1,0,.57H90.8a3,3,0,0,0,3,3.26,3.64,3.64,0,0,0,2.12-.67l.3.53a4.46,4.46,0,0,1-2.49.74A3.64,3.64,0,0,1,90.05,34.25Zm5.8-.5c0-1.92-.92-2.88-2.34-2.88a2.87,2.87,0,0,0-2.71,2.88Z" transform="translate(-1.6 -3.83)"/><path class="cls-2" d="M98.68,37V26.7h.73V37.09c0,.33.14.49.34.49a1.43,1.43,0,0,0,.3,0l.12.57a1.84,1.84,0,0,1-.53.07C99,38.19,98.68,37.82,98.68,37Z" transform="translate(-1.6 -3.83)"/><path class="cls-2" d="M102.58,37V26.7h.73V37.09c0,.33.15.49.34.49a1.38,1.38,0,0,0,.3,0l.12.57a1.71,1.71,0,0,1-.52.07C102.91,38.19,102.58,37.82,102.58,37Z" transform="translate(-1.6 -3.83)"/><path class="cls-2" d="M106.49,30.46h.62l.08,1.17h0a3.94,3.94,0,0,1,2.72-1.36c1.64,0,2.4.95,2.4,2.89V38h-.73V33.25c0-1.59-.53-2.36-1.8-2.36a3.66,3.66,0,0,0-2.59,1.42V38h-.73Z" transform="translate(-1.6 -3.83)"/><path class="cls-2" d="M114.59,34.25c0-2.47,1.68-4,3.45-4s3,1.27,3,3.49a2.73,2.73,0,0,1,0,.57h-5.69a3,3,0,0,0,3,3.26,3.7,3.7,0,0,0,2.13-.67l.3.53a4.52,4.52,0,0,1-2.5.74A3.64,3.64,0,0,1,114.59,34.25Zm5.8-.5c0-1.92-.92-2.88-2.34-2.88a2.87,2.87,0,0,0-2.71,2.88Z" transform="translate(-1.6 -3.83)"/><path class="cls-2" d="M122.23,37.15l.42-.51a3.74,3.74,0,0,0,2.52,1c1.25,0,1.89-.7,1.89-1.49,0-1-1-1.36-1.94-1.68-1.19-.4-2.52-.86-2.52-2.15,0-1.09.91-2,2.55-2a3.78,3.78,0,0,1,2.26.78l-.39.5a3.08,3.08,0,0,0-1.89-.69c-1.23,0-1.79.68-1.79,1.38,0,.86.93,1.18,1.88,1.52,1.22.45,2.58.83,2.58,2.31,0,1.13-1,2.12-2.67,2.12A4.63,4.63,0,0,1,122.23,37.15Z" transform="translate(-1.6 -3.83)"/><path class="cls-2" d="M128.91,37.15l.42-.51a3.73,3.73,0,0,0,2.51,1c1.25,0,1.9-.7,1.9-1.49,0-1-1-1.36-1.94-1.68-1.19-.4-2.52-.86-2.52-2.15,0-1.09.9-2,2.55-2a3.8,3.8,0,0,1,2.26.78l-.39.5a3.13,3.13,0,0,0-1.89-.69c-1.24,0-1.79.68-1.79,1.38,0,.86.93,1.18,1.87,1.52,1.23.45,2.58.83,2.58,2.31,0,1.13-.95,2.12-2.66,2.12A4.61,4.61,0,0,1,128.91,37.15Z" transform="translate(-1.6 -3.83)"/><path class="cls-2" d="M140,27.65h.76v4.54h5.8V27.65h.76V38h-.76V32.82h-5.8V38H140Z" transform="translate(-1.6 -3.83)"/><path class="cls-2" d="M150.27,35.3V30.46H151v4.75c0,1.6.53,2.36,1.8,2.36.95,0,1.63-.47,2.55-1.54V30.46h.73V38h-.61l-.08-1.26h0a3.58,3.58,0,0,1-2.69,1.45C151,38.19,150.27,37.25,150.27,35.3Z" transform="translate(-1.6 -3.83)"/><path class="cls-2" d="M159.84,37.24h0l-.08.76h-.6V26.7h.72V30l0,1.47a4.62,4.62,0,0,1,2.72-1.18c2.12,0,3.17,1.51,3.17,3.85,0,2.56-1.62,4.07-3.49,4.07A4.1,4.1,0,0,1,159.84,37.24Zm5.1-3.12c0-1.85-.7-3.24-2.52-3.24a4.22,4.22,0,0,0-2.58,1.25v4.48a3.93,3.93,0,0,0,2.33,1C163.78,37.58,164.94,36.17,164.94,34.12Z" transform="translate(-1.6 -3.83)"/></g></g></svg>