<svg xmlns="http://www.w3.org/2000/svg" viewBox="0 0 60.69 42.53"><defs><style>.cls-1{fill:#7d9a3c;}.cls-2{fill:#8fc045;}</style></defs><g id="Layer_2" data-name="Layer 2"><g id="Layer_1-2" data-name="Layer 1"><path class="cls-1" d="M27.78,11.93A11.93,11.93,0,0,0,15.85,0V6.19a5.74,5.74,0,0,1,0,11.48v6.18A11.93,11.93,0,0,0,27.78,11.93"/><path class="cls-2" d="M0,22A11.93,11.93,0,0,0,11.93,34V27.76a5.74,5.74,0,0,1,0-11.48V10.09A11.93,11.93,0,0,0,0,22"/><path class="cls-2" d="M27.78,22A11.93,11.93,0,0,0,39.71,33.94V27.76a5.74,5.74,0,0,1,0-11.48V10.09A11.93,11.93,0,0,0,27.78,22"/><path class="cls-1" d="M54.73,30.61A11.93,11.93,0,0,0,42.8,18.68v6.19a5.74,5.74,0,1,1,0,11.47v6.19A11.93,11.93,0,0,0,54.73,30.61"/><path class="cls-2" d="M48.77,11.93A11.92,11.92,0,0,0,60.69,23.85V17.66a5.74,5.74,0,0,1,0-11.47V0A11.93,11.93,0,0,0,48.77,11.93"/></g></g></svg>